<?xml version="1.0" encoding="UTF-8"?>
<svg id="Ebene_2" data-name="Ebene 2" xmlns="http://www.w3.org/2000/svg" viewBox="0 0 296.58 137.25">
  <defs>
    <style>
      .cls-1 {
        fill: #ffd803;
        stroke-width: 0px;
      }
    </style>
  </defs>
  <g id="Ebene_1-2" data-name="Ebene 1">
    <g>
      <g>
        <path class="cls-1" d="m135.76,64.73h-25.59v-21.35h-11.56v21.35h-25.59v-9.9c-1.74,4.37-5.89,8.45-14.94,9.87l-.39.03H0v-22.65h37.37c1.88.05,3.1-.04,3.86-.15-.44-.44-1.13-1.04-2.19-1.83l-.15-.12c-10.85-9.35-15.49-18.28-13.78-26.54C26.87,4.95,32.68.45,41.92.45h56.69v20.44h11.56V.45h25.59v64.28Zm-20.59-5h15.59V5.45h-15.59v20.44h-21.56V5.45h-51.69c-6.86,0-10.65,2.86-11.92,9.01-1.31,6.33,2.75,13.62,12.08,21.68,2.9,2.15,5.7,4.73,4.69,7.67-1.06,3.08-5.38,3.38-9.47,3.27H5v12.65h52.5c10.23-1.66,11.54-6.89,11.63-10.7.16-6.49-4.22-13.45-13.02-20.67-2.35-1.83-4.99-4.33-3.98-7.14,1.06-2.95,5.13-3.23,8.97-3.12h16.93s0,41.63,0,41.63h15.59v-21.35h21.56v21.35ZM57.75,23.2c.34.33.82.75,1.48,1.26,7.21,5.93,11.82,11.85,13.8,17.71v-19.06h-12c-1.53-.04-2.57.01-3.28.09Z"/>
        <path class="cls-1" d="m171.59,65.76c-7.9,0-14.81-1.23-20.54-3.67-5.9-2.51-10.46-6.29-13.52-11.25-3.04-4.91-4.58-10.94-4.58-17.92,0-5.27.88-10,2.61-14.06,1.75-4.11,4.36-7.63,7.75-10.45,3.34-2.78,7.47-4.91,12.28-6.33,4.71-1.39,10.09-2.09,16-2.09,7.87,0,14.78,1.25,20.56,3.71h0c5.94,2.53,10.55,6.33,13.7,11.31,3.14,4.94,4.73,10.97,4.73,17.9s-1.59,12.97-4.72,17.92c-3.16,4.99-7.76,8.78-13.69,11.27-5.76,2.42-12.68,3.64-20.57,3.64Zm0-60.76c-5.43,0-10.33.64-14.58,1.89-4.15,1.22-7.68,3.03-10.5,5.37-2.77,2.31-4.91,5.19-6.35,8.56-1.47,3.43-2.21,7.5-2.21,12.09,0,6.04,1.29,11.18,3.83,15.29,2.51,4.06,6.29,7.18,11.23,9.28,5.11,2.17,11.36,3.27,18.58,3.27s13.49-1.09,18.63-3.25c4.97-2.09,8.81-5.23,11.4-9.33,2.62-4.14,3.95-9.27,3.95-15.25s-1.33-11.1-3.95-15.23c-2.6-4.1-6.45-7.26-11.44-9.38h0c-5.15-2.2-11.41-3.31-18.6-3.31Zm-.13,44.75c-6.25,0-10.59-1.81-12.9-5.37-2.08-3.21-3.14-7.01-3.14-11.29,0-10.77,5.69-16.7,16.04-16.7,6.61,0,11.11,1.82,13.37,5.42,2.01,3.19,3.12,6.95,3.32,11.17v.14s0,.14,0,.14c-.18,2.83-.56,5.31-1.11,7.36-.66,2.46-2.28,4.64-4.81,6.45-2.52,1.81-6.04,2.69-10.77,2.69Zm0-28.37c-7.63,0-11.04,3.61-11.04,11.7,0,3.34.76,6.15,2.34,8.58,1.33,2.05,4.25,3.09,8.7,3.09,3.59,0,6.23-.59,7.85-1.75,1.59-1.14,2.54-2.35,2.9-3.69h0c.46-1.7.77-3.81.94-6.25-.17-3.29-1.03-6.19-2.55-8.6-1.29-2.04-4.36-3.08-9.14-3.08Z"/>
        <path class="cls-1" d="m279.38,64.73h-24.33l-5.97-18.7-4.96,18.7h-24.33L198.9.45h25.82l6.71,19.83L237.26.45h22.58l6.54,19.03,4.36-19.03h25.84l-17.2,64.28Zm-20.68-5h16.84l14.52-54.28h-15.34l-7.38,32.21-11.07-32.21h-15.27l-9.24,31.41-10.63-31.41h-15.35l17.65,54.28h16.85l8.36-31.55,10.06,31.55Z"/>
      </g>
      <g>
        <path class="cls-1" d="m83.83,136.22h-23.26l-5.48-18.34-4.56,18.34h-23.21l-13.73-41.94H.5v-22.79h31.71l6.19,19.51,5.38-19.51h21.59l6.01,18.65,4.01-18.65h24.45l-16,64.72Zm-19.53-5h15.62l13.53-54.72h-14.02l-7.08,32.96-10.62-32.96h-14.14l-8.85,32.11-10.19-32.11H5.5v12.79h11.72l13.73,41.94h15.67l8.02-32.29,9.65,32.29Z"/>
        <path class="cls-1" d="m125.75,137.25c-6.99,0-13.1-1.25-18.17-3.72-5.22-2.54-9.24-6.36-11.94-11.36-2.66-4.93-4.02-10.98-4.02-17.98,0-5.29.77-10.03,2.29-14.1,1.54-4.14,3.84-7.68,6.82-10.52,2.96-2.81,6.62-4.97,10.87-6.41,4.17-1.41,8.93-2.12,14.15-2.12,6.96,0,13.08,1.27,18.2,3.76h0c5.25,2.56,9.32,6.4,12.1,11.42,2.75,4.96,4.14,11.01,4.14,17.97s-1.39,13.01-4.14,17.98c-2.78,5.04-6.85,8.87-12.1,11.39-5.1,2.45-11.22,3.69-18.2,3.69Zm0-61.21c-4.75,0-9.04.64-12.75,1.89-3.62,1.23-6.71,3.03-9.18,5.38-2.44,2.32-4.32,5.22-5.59,8.63-1.3,3.48-1.95,7.6-1.95,12.25,0,6.11,1.14,11.32,3.39,15.48,2.24,4.14,5.46,7.19,9.84,9.32,4.47,2.17,9.93,3.27,16.25,3.27s11.8-1.1,16.3-3.26c4.41-2.12,7.68-5.19,9.99-9.38,2.32-4.19,3.49-9.39,3.49-15.43s-1.17-11.23-3.49-15.41c-2.32-4.18-5.6-7.26-10.03-9.42h0c-4.5-2.2-9.98-3.31-16.27-3.31Zm-.12,45.08c-5.58,0-9.45-1.84-11.49-5.46-1.82-3.22-2.75-7.03-2.75-11.31,0-10.84,5.06-16.81,14.24-16.81,5.9,0,9.91,1.85,11.91,5.51,1.76,3.2,2.73,6.96,2.9,11.19v.13s0,.13,0,.13c-.16,2.84-.49,5.33-.97,7.39h0c-.58,2.47-2,4.65-4.23,6.48-2.25,1.85-5.4,2.75-9.61,2.75Zm0-28.58c-6.63,0-9.58,3.64-9.58,11.81,0,3.35.7,6.28,2.07,8.71,1.15,2.03,3.67,3.06,7.51,3.06,3.11,0,5.39-.58,6.78-1.72,1.39-1.15,2.23-2.37,2.55-3.73h0c.41-1.73.69-3.86.83-6.34-.15-3.35-.91-6.29-2.26-8.74-1.11-2.02-3.77-3.05-7.9-3.05Z"/>
        <path class="cls-1" d="m283.28,88.8h0c-1.64-3.98-3.75-7.21-6.27-9.59-2.5-2.37-5.59-4.27-9.17-5.65-3.57-1.37-7.71-2.07-12.32-2.07h-34.41v41.94h-12.39l-1.31-1.84c2.97-1.08,5.4-2.42,7.26-4.02,2.6-2.23,4.44-5.04,5.48-8.35,1.03-3.29,1.01-7.7-.08-13.45l-.11-.4c-1.46-3.97-3.81-7.19-6.99-9.57-3.15-2.36-7.18-3.81-11.96-4.29h-37.96s0,14.88,0,14.88v4.92h6.17v.08h29.34c.1.04.35.18.77.52,0,0,.48.48.61,2.65-.04,1.65-.3,2.3-.38,2.47-.54.36-.79.37-.82.37h-35.69v38.83h24.55v-15.54l13.52,15.54h53.45c.42,0,.84.01,1.25.01,4.7,0,8.74-.61,12.02-1.82,3.6-1.33,6.7-3.24,9.21-5.68,2.54-2.46,4.58-5.81,6.08-9.96,1.45-4.02,2.33-8.92,2.62-14.58v-.13c0-6.17-.82-11.31-2.45-15.26Zm-4.87,28.27c-1.24,3.43-2.87,6.14-4.86,8.07-2.01,1.95-4.52,3.49-7.46,4.58-2.97,1.1-6.82,1.6-11.48,1.5h-51.23l-20.79-23.91v23.91h-14.55v-28.83h30.69c1.24,0,2.52-.45,3.79-1.34,2.07-1.45,2.37-4.39,2.42-6.48v-.1s0-.09,0-.09c-.17-3.05-.96-5.11-2.42-6.32-1.36-1.12-2.61-1.67-3.82-1.67h-30.65v-9.89h32.58c3.81.4,6.95,1.52,9.34,3.31,2.38,1.78,4.09,4.11,5.22,7.11.88,4.76.94,8.4.18,10.82-.76,2.44-2.06,4.41-3.96,6.05-1.95,1.67-4.86,3.03-8.67,4.03l-3.49.92,6.88,9.71h19.97v-41.94h29.41c3.99,0,7.53.58,10.53,1.74,2.98,1.15,5.51,2.7,7.53,4.61,2,1.9,3.71,4.54,5.08,7.86,1.37,3.33,2.07,7.81,2.08,13.3-.26,5.13-1.05,9.53-2.32,13.07Z"/>
        <path class="cls-1" d="m251.5,121.37h-12.8v-35.03h12.73c2.91,0,5.35.71,7.25,2.12,1.79,1.33,3.26,3.15,4.38,5.42,1.11,2.27,1.69,5.53,1.77,9.96v.09s0,.09,0,.09c-.27,4.82-.93,8.15-2.01,10.19h0c-1.06,2.01-2.47,3.69-4.17,4.99-1.86,1.43-4.27,2.15-7.14,2.15Zm-7.8-5h7.8c1.75,0,3.13-.38,4.1-1.12,1.14-.88,2.06-1.98,2.79-3.36h0c.41-.77,1.13-2.82,1.43-8.04-.09-4.47-.74-6.69-1.26-7.77-.75-1.54-1.71-2.75-2.85-3.59-1.03-.76-2.47-1.14-4.28-1.14h-7.73v25.03Z"/>
      </g>
    </g>
  </g>
</svg>