<?xml version="1.0" encoding="UTF-8"?>
<svg id="Ebene_2" data-name="Ebene 2" xmlns="http://www.w3.org/2000/svg" viewBox="0 0 196.72 227.15">
  <defs>
    <style>
      .cls-1 {
        fill: #fff;
        stroke-width: 0px;
      }
    </style>
  </defs>
  <g id="Ebene_1-2" data-name="Ebene 1">
    <path class="cls-1" d="m107.32,195.83c-1.83,1.06-3.66,2.11-5.7,3.29V30.04c1.68.94,3.22,1.79,4.74,2.66,6.25,3.57,12.5,7.14,18.74,10.73,5.58,3.21,11.15,6.44,16.74,9.65,4.3,2.47,8.63,4.9,12.94,7.36,4.8,2.74,9.6,5.5,14.4,8.24.93.53,1.24,1.34,1.24,2.37-.02,5.69,0,11.38,0,17.07,0,5.35,0,10.7,0,16.04,0,1.63-.4,1.86-1.81,1.04-8.36-4.83-16.71-9.67-25.08-14.5-4.1-2.37-8.21-4.71-12.31-7.08-.79-.45-1.12-.22-1.12.65,0,5.8-.02,11.61.04,17.41,0,.45.42,1.07.83,1.3,5.73,3.34,11.49,6.62,17.24,9.92.36.21.68.53,1.07.64,2.46.71,2.7,2.46,2.67,4.72-.1,9.06-.02,18.13-.01,27.2,0,.44,0,.89,0,1.54-1.59-.88-3-1.65-4.4-2.46-5.41-3.12-10.81-6.26-16.22-9.38-.86-.5-1.15-.35-1.21.64-.02.38,0,.76,0,1.14,0,14.72-.01,29.43.02,44.15,0,1.14-.36,1.73-1.36,2.3-7.17,4.1-14.29,8.29-21.43,12.44Zm-25.85-157.76c-9.19,5.23-18.38,10.44-27.57,15.67-9.84,5.61-19.67,11.25-29.52,16.85-.69.39-.95.82-.96,1.6-.02,11.61-.07,23.21-.1,34.82,0,.38.07.76.13,1.32,14.52-8.39,28.84-16.67,43.17-24.94l.37.19v1.66c0,31.98,0,63.95-.02,95.93,0,1.02.19,1.71,1.22,2.14.83.34,1.59.88,2.37,1.34,8.07,4.67,16.13,9.34,24.2,14.01.21.12.45.18.74.28V30.14c-.39.17-.67.26-.92.4-4.37,2.5-8.73,5.03-13.11,7.52Zm115.25,18.72v113.58l-98.36,56.79L0,170.37V56.79L98.36,0l98.36,56.79Zm-14.37,8.29L98.36,16.59,14.37,65.08v96.99l83.99,48.49,83.99-48.49v-96.99Z"/>
  </g>
</svg>